<?xml version="1.0" encoding="UTF-8"?>
<svg width="616px" height="132px" viewBox="0 0 616 132" version="1.1" xmlns="http://www.w3.org/2000/svg" xmlns:xlink="http://www.w3.org/1999/xlink">
    <!-- Generator: Sketch 41.2 (35397) - http://www.bohemiancoding.com/sketch -->
    <title>Artboard</title>
    <desc>Created with Sketch.</desc>
    <defs></defs>
    <g id="Page-1" stroke="none" stroke-width="1" fill="none" fill-rule="evenodd">
        <g id="Artboard">
            <path d="M406,101.357 L418.786,101.357 L418.786,29.084 L406,29.084 L406,101.357 Z M457.799,102.657 C474.738,102.657 485.01,90.196 485.01,75.135 C485.01,60.182 474.738,47.721 457.799,47.721 C441.079,47.721 430.698,60.182 430.698,75.135 C430.698,90.196 441.079,102.657 457.799,102.657 L457.799,102.657 Z M457.799,92.58 C448.073,92.58 442.609,84.453 442.609,75.135 C442.609,65.924 448.073,57.798 457.799,57.798 C467.634,57.798 473.099,65.924 473.099,75.135 C473.099,84.453 467.634,92.58 457.799,92.58 L457.799,92.58 Z M546.863,101.357 L546.863,90.196 L509.707,90.196 L509.707,70.15 L546.098,70.15 L546.098,58.99 L509.707,58.99 L509.707,40.244 L546.863,40.244 L546.863,29.084 L496.922,29.084 L496.922,101.357 L546.863,101.357 Z M584.892,102.657 C604.563,102.657 613.086,92.363 613.086,80.336 C613.086,53.355 570.686,61.699 570.686,48.262 C570.686,42.845 575.494,39.269 583.035,39.269 C590.684,39.269 598.443,41.87 604.125,47.504 L611.447,38.077 C604.672,31.576 595.493,28 584.127,28 C568.173,28 557.572,37.21 557.572,49.129 C557.572,75.785 600.082,66.358 600.082,81.528 C600.082,86.295 595.93,91.388 585.439,91.388 C575.276,91.388 567.407,86.729 562.38,81.419 L555.277,91.171 C561.725,97.998 571.451,102.657 584.892,102.657 L584.892,102.657 Z" id="Fill-1" fill="#1E4B87"></path>
            <path d="M146.185914,80.894 C145.892914,78.455 146.033914,74.901 146.033914,73.12 L149.846914,31.172 L163.858914,31.172 L160.046914,73.491 C159.231914,82.676 162.902914,89.178 172.288914,89.178 C181.814914,89.178 186.876914,82.602 187.680914,74.456 L191.721914,31.172 L205.799914,31.172 L201.910914,73.873 C200.302914,90.365 189.157914,102.648 171.115914,102.648 C157.037914,102.648 147.945914,93.781 146.185914,80.894 L146.185914,80.894 Z M211.512914,66.692 C213.348914,46.572 227.285914,29.846 251.258914,29.846 C257.635914,29.846 263.718914,31.256 269.746914,35.107 L268.128914,51.748 C262.631914,44.567 256.027914,43.464 249.944914,43.464 C234.986914,43.464 226.774914,53.604 225.601914,66.406 C224.493914,78.974 231.097914,89.114 245.621914,89.114 C251.932914,89.114 258.601914,87.332 265.640914,80.459 L264.098914,97.546 C257.276914,101.173 250.900914,102.796 244.524914,102.796 C220.680914,102.796 209.763914,85.55 211.512914,66.692 L211.512914,66.692 Z M281.033914,31.172 L295.034914,31.172 L289.896914,88.138 L309.992914,88.138 C311.459914,88.138 316.227914,88.074 317.542914,88.074 C317.476914,88.743 316.227914,101.163 316.227914,101.163 L274.645914,101.163 L281.033914,31.172 Z M357.733914,28 L356.712914,28 L318.291914,101.173 L333.249914,101.173 L338.593914,90.068 L365.728914,90.068 L369.106914,101.173 L383.912914,101.173 L357.733914,28 Z M354.148914,57.295 C354.594914,56.33 354.952914,55.078 355.169914,54.41 L355.398914,54.41 C355.463914,55.301 355.615914,56.34 355.908914,57.369 C356.636914,60.551 362.143914,78.242 362.143914,78.242 L344.383914,78.242 C344.383914,78.242 353.920914,57.815 354.148914,57.295 L354.148914,57.295 Z" id="Fill-3" fill="#3284BF"></path>
            <path d="M65.762,126.281 C32.326,126.281 5.224,99.188 5.224,65.755 C5.224,32.316 32.326,5.198 65.762,5.198 C99.196,5.198 126.325,32.316 126.325,65.755 C126.325,99.188 99.196,126.281 65.762,126.281 M65.762,3 C31.106,3 3,31.098 3,65.755 C3,100.392 31.106,128.501 65.762,128.501 C100.419,128.501 128.516,100.392 128.516,65.755 C128.516,31.098 100.419,3 65.762,3" id="Fill-4" fill="#FFB300"></path>
            <path d="M57.3564748,117.076714 C30.1604748,117.076714 8.11647484,95.0177135 8.11647484,67.8147135 C8.11647484,40.6207135 30.1604748,18.5937135 57.3564748,18.5937135 C84.5574748,18.5937135 106.611475,40.6207135 106.611475,67.8147135 C106.611475,95.0177135 84.5574748,117.076714 57.3564748,117.076714 M120.974475,50.2997135 C112.234475,19.4227135 80.1444748,1.48271355 49.2984748,10.2037135 C18.4254748,18.9307135 0.47447484,51.0237135 9.20847484,81.8757135 C17.9254748,112.751714 50.0144748,130.699714 80.8864748,121.961714 C111.728475,113.239714 129.690475,81.1617135 120.974475,50.2997135" id="Fill-5" fill="#2684BB"></path>
            <path d="M63.565,100.373 C45.28,100.373 30.455,85.545 30.455,67.257 C30.455,48.986 45.28,34.163 63.565,34.163 C81.872,34.163 96.695,48.986 96.695,67.257 C96.695,85.545 81.872,100.373 63.565,100.373 M57.348,20 C31.212,20 10,41.205 10,67.376 C10,93.523 31.212,114.721 57.348,114.721 C83.519,114.721 104.717,93.523 104.717,67.376 C104.717,41.205 83.519,20 57.348,20" id="Fill-6" fill="#067A3E"></path>
        </g>
    </g>
</svg>