<svg id="blue" xmlns="http://www.w3.org/2000/svg" width="393" height="80.81" viewBox="0 0 393 80.81"><defs><style>.cls-1{fill:#1e4b87;}.cls-1,.cls-2{fill-rule:evenodd;}.cls-2{fill:#2774ae;}.cls-3{fill:#ffb300;}.cls-4{fill:#2684bb;}.cls-5{fill:#077a3e;}</style></defs><title>ucla-ioes-logo</title><path id="ioes" class="cls-1" d="M374.85,64.44c12.66,0,18.15-6.63,18.15-14.37,0-17.38-27.3-12-27.3-20.65,0-3.49,3.09-5.8,7.95-5.8a19.16,19.16,0,0,1,13.58,5.31l4.71-6.07c-4.36-4.19-10.27-6.49-17.59-6.49-10.27,0-17.09,5.93-17.09,13.6,0,17.17,27.37,11.1,27.37,20.86,0,3.07-2.68,6.35-9.43,6.35a20.32,20.32,0,0,1-14.85-6.42L355.78,57C359.93,61.44,366.19,64.44,374.85,64.44Zm-24.49-.84V56.42H326.44V43.51h23.43V36.32H326.44V24.25h23.92V17.07H318.2V63.6ZM293,58c-6.26,0-9.78-5.23-9.78-11.23s3.52-11.16,9.78-11.16,9.85,5.23,9.85,11.16S299.35,58,293,58Zm0,6.49c10.91,0,17.52-8,17.52-17.72S303.92,29.07,293,29.07c-10.76,0-17.45,8-17.45,17.65S282.25,64.44,293,64.44Zm-25.12-.84V17.07h-8.23V63.6Z"/><path id="ucla" class="cls-2" d="M226,35.19a16.57,16.57,0,0,0,.66-1.86h.14a10.12,10.12,0,0,0,.33,1.9c.47,2.05,4,13.44,4,13.44H219.75Zm2.31-18.87h-.66L203,63.44h9.63L216,56.29H233.5l2.17,7.15h9.53ZM179,18.37h9l-3.31,36.68h12.94l4.86,0c0,.43-.85,8.42-.85,8.42H174.85ZM134.2,41.24c1.18-13,10.15-23.73,25.59-23.73a21.29,21.29,0,0,1,11.9,3.39l-1,10.71c-3.54-4.62-7.79-5.33-11.71-5.33-9.63,0-14.92,6.53-15.67,14.77s3.54,14.62,12.89,14.62c4.06,0,8.36-1.14,12.89-5.57l-1,11a26.34,26.34,0,0,1-12.61,3.38C140.1,64.48,133.07,53.38,134.2,41.24ZM92.13,50.38a48.23,48.23,0,0,1-.09-5l2.45-27h9l-2.45,27.24c-.53,5.92,1.84,10.11,7.88,10.11s9.4-4.24,9.91-9.48l2.6-27.87h9.07L128,45.86c-1,10.62-8.22,18.53-19.83,18.53C99.12,64.39,93.27,58.68,92.13,50.38Z"/><g id="logo_mark" data-name="logo mark"><path class="cls-3" d="M40.41,0A40.41,40.41,0,1,0,80.82,40.41,40.41,40.41,0,0,0,40.41,0Zm0,79.38a39,39,0,1,1,39-39A39,39,0,0,1,40.41,79.38Z"/><path class="cls-4" d="M76,30.32A37.39,37.39,0,1,0,50.21,76.46,37.39,37.39,0,0,0,76,30.32Zm-41,43A31.71,31.71,0,1,1,66.77,41.59,31.72,31.72,0,0,1,35.06,73.31Z"/><path class="cls-5" d="M35.06,11.06a30.5,30.5,0,1,0,30.5,30.51A30.5,30.5,0,0,0,35.06,11.06Zm4,51.75A21.32,21.32,0,1,1,60.4,41.49,21.33,21.33,0,0,1,39.06,62.81Z"/></g></svg>