<svg xmlns="http://www.w3.org/2000/svg" width="1558.81" height="230.1" viewBox="0 0 1558.81 230.1"><defs><style>.cls-1{fill:#2774ae;}.cls-2{font-size:66.23px;font-family:ProximaNova-Regular, Proxima Nova;letter-spacing:-0.01em;}.cls-3{fill:#ffb300;}.cls-4{fill:#2684bb;}.cls-5{fill:#077a3e;}</style></defs><title>ioes-logo-top</title><g id="ucla_new_blue" data-name="ucla new blue"><path class="cls-1" d="M259.42,107.74a65.77,65.77,0,0,1-.2-8.11l3.87-43.81h14.33L273.51,100c-.85,9.57,2.91,16.4,12.46,16.4,9.77,0,14.9-7,15.77-15.44l4.08-45.16h14.35l-4,44.63c-1.61,17.14-13,30-31.42,30-14.36,0-23.61-9.3-25.36-22.72"/><path class="cls-1" d="M325.94,92.91C327.81,71.85,342,54.4,366.56,54.4a33.78,33.78,0,0,1,18.85,5.46l-1.64,17.4c-5.7-7.45-12.37-8.65-18.56-8.65-15.26,0-23.68,10.59-24.83,24-1.16,13.08,5.59,23.63,20.36,23.63,6.46,0,13.28-1.8,20.45-9l-1.62,17.82a40.58,40.58,0,0,1-20,5.5c-24.26,0-35.41-18-33.67-37.67"/><path class="cls-1" d="M396.86,55.82h14.26l-5.18,59.5h20.51c1.44,0,6.33-.07,7.62-.14,0,.75-1.27,13.74-1.27,13.74H390.36Z"/><path class="cls-1" d="M471.36,83.07a16.17,16.17,0,0,0,1.11-3,1.77,1.77,0,0,1,.23,0,13.43,13.43,0,0,0,.53,3.1c.75,3.35,6.36,21.82,6.36,21.82H461.5s9.71-21.39,9.86-21.88m3.71-30.62h-1L434.9,128.92h15.22l5.49-11.59h27.6l3.45,11.6h15.13Z"/></g><g id="ioes"><text class="cls-2" transform="translate(259.19 183.97)">Institute of the Environment and Sustainability</text></g><g id="flat_logo" data-name="flat logo"><path class="cls-3" d="M115,.22a114.94,114.94,0,1,0,115,114.94A115,115,0,0,0,115,.22ZM115,226A110.9,110.9,0,1,1,225.89,115.16,110.87,110.87,0,0,1,115,226Z"/><path class="cls-4" d="M216.25,86.45a106.36,106.36,0,1,0-73.43,131.28A106.39,106.39,0,0,0,216.25,86.45ZM99.72,208.78a90.2,90.2,0,1,1,90.22-90.23A90.21,90.21,0,0,1,99.72,208.78Z"/><path class="cls-5" d="M99.74,31.69a86.75,86.75,0,1,0,86.76,86.77A86.76,86.76,0,0,0,99.74,31.69ZM111.12,178.9a60.64,60.64,0,1,1,60.69-60.66A60.64,60.64,0,0,1,111.12,178.9Z"/></g></svg>