<svg id="blue" xmlns="http://www.w3.org/2000/svg" width="153.19" height="48.16" viewBox="0 0 153.19 48.16"><defs><style>.cls-1{fill:#2774ae;fill-rule:evenodd;}</style></defs><title>ucla-logo</title><path id="ucla" class="cls-1" d="M134,18.86a15.9,15.9,0,0,0,.66-1.86h.15a9.34,9.34,0,0,0,.33,1.91c.47,2.05,4,13.44,4,13.44H127.74S133.88,19.2,134,18.86ZM136.33,0h-.65L110.94,47.12h9.63L124,40h17.47l2.18,7.16h9.53ZM87,2h9L92.65,38.72h12.94l4.86,0c0,.43-.84,8.43-.84,8.43H82.83ZM42.18,24.91C43.37,12,52.34,1.19,67.78,1.19a21.31,21.31,0,0,1,11.9,3.39l-1,10.71C75.1,10.67,70.85,10,66.93,10,57.3,10,52,16.49,51.25,24.73s3.54,14.62,12.9,14.62c4.06,0,8.35-1.15,12.89-5.57l-1,11a26.31,26.31,0,0,1-12.6,3.38C48.09,48.16,41.06,37.06,42.18,24.91ZM.12,34.06a45.94,45.94,0,0,1-.1-5L2.48,2h9L9,29.29c-.52,5.91,1.84,10.1,7.89,10.1s9.39-4.23,9.91-9.48L29.44,2H38.5L36,29.54c-1,10.62-8.21,18.52-19.83,18.52C7.11,48.06,1.25,42.36.12,34.06Z"/></svg>