<?xml version="1.0" encoding="UTF-8" standalone="no"?>
<!DOCTYPE svg PUBLIC "-//W3C//DTD SVG 1.1//EN" "http://www.w3.org/Graphics/SVG/1.1/DTD/svg11.dtd">
<svg width="100%" height="100%" viewBox="0 0 433 77" version="1.1" xmlns="http://www.w3.org/2000/svg" xmlns:xlink="http://www.w3.org/1999/xlink" xml:space="preserve" xmlns:serif="http://www.serif.com/" style="fill-rule:evenodd;clip-rule:evenodd;stroke-linejoin:round;stroke-miterlimit:2;">
    <g id="Unboxed_Black">
        <rect x="113.06" y="20.24" width="1.21" height="9.65" style="fill-rule:nonzero;"/>
        <path d="M117,23.83C117.511,23.126 118.34,22.72 119.21,22.75C119.322,22.732 119.435,22.722 119.548,22.722C120.695,22.722 121.638,23.666 121.638,24.812C121.638,24.875 121.636,24.938 121.63,25L121.63,29.9L120.54,29.9L120.54,25.08C120.54,24.18 119.94,23.67 118.96,23.67C118.923,23.668 118.885,23.667 118.848,23.667C117.833,23.667 116.998,24.502 116.998,25.517C116.998,25.544 116.999,25.572 117,25.6L117,29.89L116,29.89L116,22.89L117,22.89L117,23.83Z" style="fill-rule:nonzero;"/>
        <path d="M122.59,27.62L123.71,27.62C123.86,28.84 124.71,29.17 125.71,29.17C126.71,29.17 127.33,28.67 127.33,28.03C127.33,27.24 126.79,27.03 125.5,26.77C124.21,26.51 122.9,26.2 122.9,24.68C122.9,23.52 123.79,22.76 125.41,22.76C127.03,22.76 127.99,23.58 128.15,24.95L127,24.95C126.89,24.03 126.39,23.62 125.35,23.62C124.31,23.62 123.95,24.07 123.95,24.62C123.95,25.38 124.62,25.53 125.82,25.77C127.23,26.06 128.4,26.37 128.4,27.97C128.4,29.38 127.26,30.09 125.65,30.09C123.76,30.09 122.7,29.19 122.59,27.62Z" style="fill-rule:nonzero;"/>
        <path d="M128.8,22.91L129.8,22.91L129.8,20.71L130.89,20.71L130.89,22.91L132.24,22.91L132.24,23.8L130.9,23.8L130.9,28.34C130.9,28.82 131.16,28.99 131.6,28.99C131.8,28.984 131.999,28.95 132.19,28.89L132.19,29.84C131.9,29.898 131.606,29.928 131.31,29.93C130.42,29.93 129.77,29.57 129.77,28.58L129.77,23.8L128.77,23.8L128.8,22.91Z" style="fill-rule:nonzero;"/>
        <path d="M133.2,20.24L134.29,20.24L134.29,21.59L133.2,21.59L133.2,20.24ZM133.2,22.91L134.29,22.91L134.29,29.91L133.2,29.91L133.2,22.91Z" style="fill-rule:nonzero;"/>
        <path d="M135.14,22.91L136.14,22.91L136.14,20.71L137.23,20.71L137.23,22.91L138.58,22.91L138.58,23.8L137.23,23.8L137.23,28.34C137.23,28.82 137.49,28.99 137.94,28.99C138.137,28.984 138.332,28.95 138.52,28.89L138.52,29.84C138.23,29.898 137.936,29.928 137.64,29.93C136.75,29.93 136.1,29.57 136.1,28.58L136.1,23.8L135.1,23.8L135.14,22.91Z" style="fill-rule:nonzero;"/>
        <path d="M144,29.89L144,28.89C143.543,29.608 142.74,30.034 141.89,30.01C141.825,30.016 141.76,30.019 141.694,30.019C140.509,30.019 139.534,29.044 139.534,27.859C139.534,27.806 139.536,27.753 139.54,27.7L139.54,22.91L140.64,22.91L140.64,27.72C140.639,27.744 140.638,27.769 140.638,27.794C140.638,28.545 141.256,29.164 142.008,29.164C142.072,29.164 142.136,29.159 142.2,29.15C143.191,29.147 144.005,28.331 144.005,27.34C144.005,27.293 144.004,27.247 144,27.2L144,22.91L145.09,22.91L145.09,29.91L144,29.89Z" style="fill-rule:nonzero;"/>
        <path d="M145.91,22.91L146.91,22.91L146.91,20.71L148,20.71L148,22.91L149.35,22.91L149.35,23.8L148,23.8L148,28.34C148,28.82 148.25,28.99 148.7,28.99C148.897,28.985 149.093,28.952 149.28,28.89L149.28,29.84C148.99,29.898 148.696,29.928 148.4,29.93C147.51,29.93 146.86,29.57 146.86,28.58L146.86,23.8L145.86,23.8L145.91,22.91Z" style="fill-rule:nonzero;"/>
        <path d="M149.73,26.41C149.723,26.319 149.719,26.228 149.719,26.138C149.719,24.316 151.179,22.799 153,22.73C155.09,22.73 156.22,24.35 156.22,26.66L150.81,26.66C150.89,28.08 151.66,29.16 153.07,29.16C153.978,29.24 154.812,28.622 155,27.73L156.07,27.73C155.819,29.158 154.516,30.178 153.07,30.08C151.226,30.065 149.718,28.544 149.718,26.7C149.718,26.603 149.722,26.506 149.73,26.41ZM150.88,25.84L155.08,25.84C155.01,24.45 154.3,23.6 153.08,23.6C151.86,23.6 151,24.57 150.88,25.84Z" style="fill-rule:nonzero;"/>
        <path d="M159.07,26.41C159.063,26.324 159.06,26.237 159.06,26.15C159.06,24.296 160.586,22.77 162.44,22.77C164.294,22.77 165.82,24.296 165.82,26.15C165.82,26.237 165.817,26.324 165.81,26.41C165.817,26.496 165.82,26.583 165.82,26.67C165.82,28.524 164.294,30.05 162.44,30.05C160.586,30.05 159.06,28.524 159.06,26.67C159.06,26.583 159.063,26.496 159.07,26.41ZM164.69,26.41C164.69,24.87 163.94,23.64 162.45,23.64C160.96,23.64 160.2,24.87 160.2,26.41C160.2,27.95 160.97,29.16 162.45,29.16C163.93,29.16 164.69,28 164.69,26.41Z" style="fill-rule:nonzero;"/>
        <path d="M166.19,22.91L167.19,22.91L167.19,21.79C167.19,20.59 167.87,20.15 169.04,20.15L169.59,20.15L169.59,21.08L169.24,21.08C168.54,21.08 168.24,21.26 168.24,21.82L168.24,22.89L169.54,22.89L169.54,23.78L168.24,23.78L168.24,29.87L167.15,29.87L167.15,23.8L166.15,23.8L166.19,22.91Z" style="fill-rule:nonzero;"/>
        <path d="M172.3,22.91L173.3,22.91L173.3,20.71L174.4,20.71L174.4,22.91L175.75,22.91L175.75,23.8L174.4,23.8L174.4,28.34C174.4,28.82 174.66,28.99 175.1,28.99C175.297,28.985 175.493,28.952 175.68,28.89L175.68,29.84C175.39,29.899 175.096,29.929 174.8,29.93C173.91,29.93 173.26,29.57 173.26,28.58L173.26,23.8L172.26,23.8L172.3,22.91Z" style="fill-rule:nonzero;"/>
        <path d="M177.78,23.83C178.293,23.123 179.127,22.717 180,22.75C180.095,22.737 180.191,22.73 180.288,22.73C181.434,22.73 182.378,23.674 182.378,24.82C182.378,24.88 182.375,24.94 182.37,25L182.37,29.9L181.28,29.9L181.28,25.08C181.28,24.18 180.68,23.67 179.7,23.67C179.676,23.669 179.652,23.669 179.628,23.669C178.613,23.669 177.778,24.504 177.778,25.519C177.778,25.546 177.779,25.573 177.78,25.6L177.78,29.89L176.69,29.89L176.69,20.24L177.78,20.24L177.78,23.83Z" style="fill-rule:nonzero;"/>
        <path d="M183.4,26.41C183.393,26.32 183.389,26.229 183.389,26.139C183.389,24.302 184.874,22.778 186.71,22.73C188.8,22.73 189.92,24.35 189.92,26.66L184.52,26.66C184.6,28.08 185.37,29.16 186.78,29.16C187.688,29.24 188.522,28.622 188.71,27.73L189.77,27.73C189.528,29.163 188.219,30.188 186.77,30.08C186.766,30.08 186.761,30.08 186.757,30.08C184.908,30.08 183.387,28.559 183.387,26.71C183.387,26.61 183.391,26.51 183.4,26.41ZM184.55,25.84L188.75,25.84C188.68,24.45 187.97,23.6 186.75,23.6C185.53,23.6 184.71,24.57 184.55,25.84Z" style="fill-rule:nonzero;"/>
        <path d="M113.46,35.29L126.21,35.29L126.21,38.29L117,38.29L117,42.17L125.09,42.17L125.09,45L117,45L117,49.7L126.31,49.7L126.31,52.63L113.46,52.63L113.46,35.29Z" style="fill-rule:nonzero;"/>
        <path d="M131.29,41.89L131.36,41.89C132.122,40.592 133.546,39.82 135.05,39.89C137.62,39.89 139.34,41.83 139.34,44.55L139.34,52.67L136,52.67L136,45C136.007,44.929 136.011,44.858 136.011,44.788C136.011,43.652 135.077,42.718 133.941,42.718C133.907,42.718 133.874,42.718 133.84,42.72C132.439,42.756 131.307,43.918 131.307,45.319C131.307,45.406 131.311,45.493 131.32,45.58L131.32,52.64L128.02,52.64L128.02,40.19L131.25,40.19L131.29,41.89Z" style="fill-rule:nonzero;"/>
        <path d="M139.78,40.19L143.12,40.19L145.12,46.64C145.48,47.83 145.68,48.64 145.68,48.64L145.73,48.64C145.73,48.64 145.9,47.84 146.26,46.64L148.26,40.19L151.55,40.19L147.21,52.63L144.06,52.63L139.78,40.19Z" style="fill-rule:nonzero;"/>
        <path d="M152.53,35.29L155.83,35.29L155.83,38.29L152.53,38.29L152.53,35.29ZM152.53,40.19L155.83,40.19L155.83,52.63L152.53,52.63L152.53,40.19Z" style="fill-rule:nonzero;"/>
        <path d="M161.07,42.18L161.15,42.18C161.9,40.77 162.75,40.05 164.15,40.05C164.413,40.035 164.677,40.066 164.93,40.14L164.93,43L164.85,43C162.7,42.78 161.14,43.92 161.14,46.54L161.14,52.6L157.9,52.6L157.9,40.19L161.07,40.19L161.07,42.18Z" style="fill-rule:nonzero;"/>
        <path d="M165.46,46.42C165.46,42.854 168.394,39.92 171.96,39.92C175.526,39.92 178.46,42.854 178.46,46.42C178.46,49.986 175.526,52.92 171.96,52.92C168.394,52.92 165.46,49.986 165.46,46.42ZM175.11,46.42C175.11,44 173.97,42.35 171.95,42.35C169.93,42.35 168.8,44 168.8,46.42C168.8,48.84 169.92,50.42 171.95,50.42C173.98,50.42 175.11,48.85 175.11,46.42Z" style="fill-rule:nonzero;"/>
        <path d="M183.16,41.89L183.24,41.89C183.991,40.585 185.417,39.81 186.92,39.89C189.49,39.89 191.21,41.83 191.21,44.55L191.21,52.67L187.92,52.67L187.92,45C187.927,44.929 187.931,44.858 187.931,44.788C187.931,43.652 186.997,42.718 185.861,42.718C185.827,42.718 185.794,42.718 185.76,42.72C184.359,42.756 183.227,43.918 183.227,45.319C183.227,45.406 183.231,45.493 183.24,45.58L183.24,52.64L179.94,52.64L179.94,40.19L183.16,40.19L183.16,41.89Z" style="fill-rule:nonzero;"/>
        <path d="M193.24,40.19L196.42,40.19L196.42,41.87L196.49,41.87C197.231,40.585 198.628,39.813 200.11,39.87C201.574,39.837 202.927,40.675 203.55,42C204.313,40.658 205.737,39.822 207.28,39.81C209.9,39.81 211.38,41.51 211.38,44.23L211.38,52.59L208.08,52.59L208.08,44.82C208.08,43.42 207.38,42.69 206.17,42.69C204.78,42.69 203.93,43.76 203.93,45.4L203.93,52.63L200.64,52.63L200.64,44.82C200.64,43.42 199.93,42.69 198.72,42.69C197.51,42.69 196.49,43.76 196.49,45.4L196.49,52.63L193.19,52.63L193.24,40.19Z" style="fill-rule:nonzero;"/>
        <path d="M212.85,46.4C212.85,42.71 215.35,39.85 218.99,39.85C222.99,39.85 225.12,42.91 225.12,47.34L216.12,47.34C216.37,49.26 217.43,50.45 219.3,50.45C220.352,50.548 221.345,49.915 221.7,48.92L224.95,48.92C224.49,51.13 222.52,52.99 219.32,52.99C215.18,53 212.85,50.11 212.85,46.4ZM216.15,45.07L221.68,45.07C221.68,45.053 221.68,45.036 221.68,45.019C221.68,43.582 220.498,42.399 219.06,42.399C219.04,42.399 219.02,42.4 219,42.4C217.29,42.4 216.44,43.44 216.15,45.07Z" style="fill-rule:nonzero;"/>
        <path d="M229.83,41.89L229.91,41.89C230.661,40.585 232.087,39.81 233.59,39.89C236.16,39.89 237.88,41.83 237.88,44.55L237.88,52.67L234.59,52.67L234.59,45C234.597,44.929 234.601,44.858 234.601,44.788C234.601,43.652 233.667,42.718 232.531,42.718C232.497,42.718 232.464,42.718 232.43,42.72C231.029,42.756 229.897,43.918 229.897,45.319C229.897,45.406 229.901,45.493 229.91,45.58L229.91,52.64L226.61,52.64L226.61,40.19L229.83,40.19L229.83,41.89Z" style="fill-rule:nonzero;"/>
        <path d="M238.79,40.19L240.51,40.19L240.51,36.31L243.73,36.31L243.73,40.19L245.87,40.19L245.87,42.38L243.73,42.38L243.73,49C243.725,49.041 243.723,49.083 243.723,49.124C243.723,49.728 244.22,50.224 244.823,50.224C244.882,50.224 244.941,50.22 245,50.21L246,50.21L246,52.64L243.94,52.64C242.34,52.64 240.57,52.01 240.57,49.64L240.57,42.38L238.85,42.38L238.79,40.19Z" style="fill-rule:nonzero;"/>
        <path d="M251,48.17C251,45.7 252.58,44.17 254.84,43C253.909,42.041 253.385,40.757 253.38,39.42C253.38,37.16 255.17,35.42 257.87,35.42C260.57,35.42 262.4,37.02 262.4,39.42C262.4,41.56 261.16,42.62 259.3,43.59L261.6,46.59C261.948,45.687 262.177,44.742 262.28,43.78L265.21,43.78C265.091,45.672 264.526,47.509 263.56,49.14L266.3,52.68L262.3,52.68L261.4,51.54C260.07,52.524 258.455,53.051 256.8,53.04C253,53 251,50.88 251,48.17ZM259.66,49.26L256.48,45.11C255.293,45.64 254.513,46.81 254.48,48.11C254.487,49.328 255.492,50.326 256.71,50.326C256.767,50.326 256.823,50.324 256.88,50.32C257.914,50.32 258.913,49.943 259.69,49.26L259.66,49.26ZM257.82,41.7C258.705,41.299 259.274,40.411 259.27,39.44C259.273,39.401 259.275,39.362 259.275,39.323C259.275,38.577 258.661,37.963 257.915,37.963C257.169,37.963 256.555,38.577 256.555,39.323C256.555,39.362 256.557,39.401 256.56,39.44C256.672,40.335 257.137,41.148 257.85,41.7L257.82,41.7Z" style="fill-rule:nonzero;"/>
        <path d="M271.11,47.27L274.56,47.27C274.8,49.36 275.99,50.18 278.46,50.18C280.25,50.18 281.83,49.55 281.83,47.95C281.83,46.35 280.18,45.95 277.54,45.31C274.43,44.61 271.6,43.78 271.6,40.17C271.6,36.75 274.39,34.98 278.24,34.98C282.09,34.98 284.67,36.89 284.93,40.39L281.56,40.39C281.37,38.64 280.01,37.77 278.22,37.77C276.43,37.77 275.09,38.57 275.09,39.77C275.09,41.18 276.3,41.59 278.87,42.15C282.44,42.93 285.35,43.77 285.35,47.51C285.35,51.02 282.51,52.99 278.6,52.99C273.9,53 271.23,50.93 271.11,47.27Z" style="fill-rule:nonzero;"/>
        <path d="M295,52.63L295,51.18L294.93,51.18C294.153,52.38 292.788,53.076 291.36,53C288.59,53 287.04,51.23 287.04,48.51L287.04,40.19L290.31,40.19L290.31,47.93C290.31,49.38 290.97,50.18 292.37,50.18C292.373,50.18 292.375,50.18 292.378,50.18C293.755,50.18 294.888,49.047 294.888,47.67C294.888,47.57 294.882,47.47 294.87,47.37L294.87,40.19L298.17,40.19L298.17,52.63L295,52.63Z" style="fill-rule:nonzero;"/>
        <path d="M299.53,48.61L302.58,48.61C302.8,50.04 303.82,50.67 305.3,50.67C306.78,50.67 307.58,50.11 307.58,49.24C307.58,48.05 306,47.93 304.31,47.59C302.07,47.15 299.89,46.54 299.89,43.83C299.89,41.12 302.12,39.83 304.96,39.83C308.23,39.83 310.05,41.46 310.29,43.95L307.29,43.95C307.15,42.62 306.29,42.14 304.89,42.14C303.49,42.14 302.76,42.62 302.76,43.52C302.76,44.59 304.41,44.68 306.18,45.05C308.26,45.48 310.56,46.05 310.56,48.97C310.56,51.47 308.43,52.97 305.33,52.97C301.74,53 299.72,51.25 299.53,48.61Z" style="fill-rule:nonzero;"/>
        <path d="M311.07,40.19L312.79,40.19L312.79,36.31L316,36.31L316,40.19L318.13,40.19L318.13,42.38L316,42.38L316,49C315.992,49.053 315.988,49.107 315.988,49.161C315.988,49.759 316.48,50.251 317.078,50.251C317.129,50.251 317.18,50.247 317.23,50.24L318.23,50.24L318.23,52.67L316.17,52.67C314.57,52.67 312.8,52.04 312.8,49.67L312.8,42.38L311.08,42.38L311.07,40.19Z" style="fill-rule:nonzero;"/>
        <path d="M327.15,51.25C326.52,52.19 325.62,52.92 323.49,52.92C320.94,52.92 319.15,51.59 319.15,49.12C319.15,46.38 321.38,45.5 324.15,45.12C326.21,44.83 327.15,44.66 327.15,43.72C327.15,42.78 326.44,42.24 325.06,42.24C323.51,42.24 322.76,42.8 322.66,43.98L319.73,43.98C319.82,41.8 321.45,39.89 325.09,39.89C328.73,39.89 330.32,41.56 330.32,44.47L330.32,50.8C330.32,51.74 330.47,52.3 330.76,52.52L330.76,52.64L327.58,52.64C327.337,52.214 327.19,51.739 327.15,51.25ZM327.15,48.25L327.15,46.38C326.417,46.717 325.644,46.959 324.85,47.1C323.12,47.49 322.28,47.88 322.28,49.04C322.28,50.2 323.05,50.62 324.22,50.62C326.13,50.62 327.17,49.46 327.17,48.24L327.15,48.25Z" style="fill-rule:nonzero;"/>
        <path d="M332.32,35.29L335.61,35.29L335.61,38.29L332.32,38.29L332.32,35.29ZM332.32,40.19L335.61,40.19L335.61,52.63L332.32,52.63L332.32,40.19Z" style="fill-rule:nonzero;"/>
        <path d="M340.91,41.89L341,41.89C341.762,40.592 343.186,39.82 344.69,39.89C347.26,39.89 348.98,41.83 348.98,44.55L348.98,52.67L345.68,52.67L345.68,45C345.687,44.929 345.691,44.858 345.691,44.788C345.691,43.652 344.757,42.718 343.621,42.718C343.587,42.718 343.554,42.718 343.52,42.72C342.12,42.757 340.988,43.918 340.988,45.319C340.988,45.403 340.992,45.487 341,45.57L341,52.63L337.71,52.63L337.71,40.19L340.93,40.19L340.91,41.89Z" style="fill-rule:nonzero;"/>
        <path d="M358.41,51.25L358.36,51.25C357.73,52.19 356.83,52.92 354.7,52.92C352.15,52.92 350.36,51.59 350.36,49.12C350.36,46.38 352.59,45.5 355.36,45.12C357.42,44.83 358.36,44.66 358.36,43.72C358.36,42.78 357.65,42.24 356.27,42.24C354.72,42.24 353.97,42.8 353.87,43.98L350.94,43.98C351.03,41.8 352.66,39.89 356.3,39.89C359.94,39.89 361.53,41.56 361.53,44.47L361.53,50.8C361.53,51.74 361.68,52.3 361.97,52.52L361.97,52.64L358.79,52.64C358.565,52.209 358.435,51.735 358.41,51.25ZM358.41,48.25L358.41,46.38C357.677,46.717 356.904,46.959 356.11,47.1C354.38,47.49 353.54,47.88 353.54,49.04C353.54,50.2 354.31,50.62 355.48,50.62C357.39,50.62 358.43,49.46 358.43,48.24L358.41,48.25Z" style="fill-rule:nonzero;"/>
        <path d="M366.81,51.08L366.76,51.08L366.76,52.63L363.58,52.63L363.58,35.29L366.88,35.29L366.88,41.7L367,41.7C367.736,40.503 369.066,39.794 370.47,39.85C373.6,39.85 375.83,42.54 375.83,46.42C375.83,50.3 373.65,53 370.52,53C369.029,53.076 367.608,52.341 366.81,51.08ZM372.43,46.42C372.43,44.12 371.51,42.52 369.67,42.52C367.58,42.52 366.81,44.19 366.81,46.52C366.81,48.85 367.95,50.25 369.81,50.25C371.67,50.25 372.43,48.82 372.43,46.42Z" style="fill-rule:nonzero;"/>
        <path d="M377.33,35.29L380.62,35.29L380.62,38.29L377.33,38.29L377.33,35.29ZM377.33,40.19L380.62,40.19L380.62,52.63L377.33,52.63L377.33,40.19Z" style="fill-rule:nonzero;"/>
        <path d="M382.71,35.29L386,35.29L386,52.63L382.7,52.63L382.71,35.29Z" style="fill-rule:nonzero;"/>
        <path d="M388.1,35.29L391.4,35.29L391.4,38.29L388.1,38.29L388.1,35.29ZM388.1,40.19L391.4,40.19L391.4,52.63L388.1,52.63L388.1,40.19Z" style="fill-rule:nonzero;"/>
        <path d="M392.51,40.19L394.23,40.19L394.23,36.31L397.45,36.31L397.45,40.19L399.59,40.19L399.59,42.38L397.45,42.38L397.45,49C397.443,49.05 397.44,49.1 397.44,49.15C397.44,49.754 397.936,50.25 398.54,50.25C398.59,50.25 398.64,50.247 398.69,50.24L399.69,50.24L399.69,52.67L397.63,52.67C396.03,52.67 394.26,52.04 394.26,49.67L394.26,42.38L392.54,42.38L392.51,40.19Z" style="fill-rule:nonzero;"/>
        <path d="M401.59,54.11L402.75,54.11C404.06,54.11 404.6,53.43 404.6,52.41C404.451,51.24 404.113,50.102 403.6,49.04L400.25,40.19L403.72,40.19L405.56,45.79C405.95,46.93 406.37,48.51 406.37,48.51C406.37,48.51 406.71,46.93 407.1,45.79L408.85,40.19L412.17,40.19L407.92,53C406.97,55.76 406.05,56.75 403.53,56.75L401.59,56.75L401.59,54.11Z" style="fill-rule:nonzero;"/>
        <g id="_logo_" transform="matrix(1,0,0,1,-6.89105,-5.62715)">
            <rect x="20" y="20" width="92" height="44" style="fill:rgb(39,116,174);"/>
            <path d="M34.71,46.23C34.667,45.491 34.667,44.749 34.71,44.01L35.71,32.01L39.56,32.01L38.56,44.11C38.33,46.73 39.34,48.59 41.9,48.59C44.46,48.59 45.9,46.69 46.14,44.37L47.17,32L51,32L50,44.22C49.58,48.93 46.52,52.45 41.57,52.45C37.72,52.45 35.23,49.9 34.76,46.23" style="fill:white;fill-rule:nonzero;"/>
            <path d="M51.9,42.17C52.41,36.41 56.22,31.64 62.79,31.64C64.588,31.612 66.354,32.132 67.85,33.13L67.41,37.89C66.273,36.282 64.374,35.382 62.41,35.52C58.31,35.52 56.07,38.42 55.75,42.09C55.43,45.76 57.24,48.57 61.21,48.57C63.309,48.576 65.312,47.675 66.7,46.1L66.3,51C64.669,51.953 62.819,52.469 60.93,52.5C54.42,52.5 51.44,47.57 51.93,42.18" style="fill:white;fill-rule:nonzero;"/>
            <path d="M70.93,32L74.77,32L73.36,48.3L80.87,48.3C80.87,48.5 80.52,52.07 80.52,52.07L69.18,52.07L70.93,32Z" style="fill:white;fill-rule:nonzero;"/>
            <path d="M90.93,39.49C91.049,39.218 91.146,38.937 91.22,38.65L91.28,38.65C91.303,38.937 91.354,39.222 91.43,39.5C91.64,40.41 93.13,45.5 93.13,45.5L88.28,45.5C88.28,45.5 90.88,39.65 90.93,39.5M91.93,31.11L91.66,31.11L81.14,52L85.22,52L86.7,48.82L94.1,48.82L95,52L99.1,52L91.93,31.11Z" style="fill:white;fill-rule:nonzero;"/>
        </g>
    </g>
</svg>
