<svg xmlns="http://www.w3.org/2000/svg" width="489.64" height="489.38" viewBox="0 0 489.64 489.38"><defs><style>.cls-1{fill:#ffb300;}.cls-2{fill:#2684bb;}.cls-3{fill:#077a3e;}</style></defs><title>ioes-logo-gradient</title><g id="flat"><path class="cls-1" d="M243.13,3.2C108.89,3.2,0,112.07,0,246.31S108.89,489.38,243.13,489.38,486.25,380.52,486.25,246.31,377.4,3.2,243.13,3.2Zm0,477.6C113.6,480.8,8.6,375.83,8.6,246.31S113.6,11.72,243.13,11.72,477.76,116.79,477.76,246.31,372.66,480.8,243.13,480.8Z"/><path class="cls-2" d="M457.38,185.57C423.52,66,299.22-3.5,179.7,30.28S-9.43,188.41,24.41,307.92s158.06,189.15,277.66,155.3S491.14,305.17,457.38,185.57ZM210.92,444.3c-105.36,0-190.73-85.46-190.73-190.83s85.37-190.7,190.73-190.7,190.83,85.34,190.83,190.7S316.31,444.3,210.92,444.3Z"/><path class="cls-3" d="M210.94,69.76c-101.24,0-183.42,82.16-183.42,183.52S109.7,436.71,210.94,436.71,394.45,354.6,394.45,253.28A183.49,183.49,0,0,0,210.94,69.76ZM235,381.1A128.24,128.24,0,1,1,363.38,252.81,128.27,128.27,0,0,1,235,381.1Z"/></g></svg>