<svg xmlns="http://www.w3.org/2000/svg" xmlns:xlink="http://www.w3.org/1999/xlink" width="489.64" height="489.38" viewBox="0 0 489.64 489.38"><defs><style>.cls-1{fill:#ffd44f;}.cls-2{fill:url(#linear-gradient);}.cls-3{fill:url(#linear-gradient-2);}.cls-4{fill:url(#linear-gradient-3);}.cls-5{fill:url(#linear-gradient-4);}</style><linearGradient id="linear-gradient" x1="305.36" y1="460.18" x2="182.96" y2="27.05" gradientUnits="userSpaceOnUse"><stop offset="0" stop-color="#0d4e89"/><stop offset="0.16" stop-color="#0964a1"/><stop offset="0.4" stop-color="#047fbc"/><stop offset="0.61" stop-color="#018ecd"/><stop offset="0.76" stop-color="#0094d3"/><stop offset="0.84" stop-color="#008ecf"/><stop offset="0.95" stop-color="#007bc2"/><stop offset="1" stop-color="#0072bc"/></linearGradient><linearGradient id="linear-gradient-2" x1="173.04" y1="56.65" x2="287.06" y2="394.14" gradientUnits="userSpaceOnUse"><stop offset="0.13" stop-color="#0d4e89"/><stop offset="0.65" stop-color="#0676b3"/><stop offset="1" stop-color="#0094d3"/></linearGradient><linearGradient id="linear-gradient-3" x1="214.34" y1="74.58" x2="214.34" y2="436.57" gradientUnits="userSpaceOnUse"><stop offset="0" stop-color="#004b30"/><stop offset="0.51" stop-color="#00703e"/><stop offset="1" stop-color="#004b30"/></linearGradient><linearGradient id="linear-gradient-4" x1="226.92" y1="106.12" x2="226.92" y2="396.42" gradientUnits="userSpaceOnUse"><stop offset="0.03" stop-color="#07793e"/><stop offset="0.14" stop-color="#158045"/><stop offset="0.53" stop-color="#499860"/><stop offset="0.83" stop-color="#69a771"/><stop offset="1" stop-color="#75ad77"/></linearGradient></defs><title>ioes-logo-gradient</title><g id="gradient"><path class="cls-1" d="M246.42,0c-134.26,0-243,108.83-243,243.1s108.77,243.09,243,243.09S489.64,377.3,489.64,243.1,380.71,0,246.42,0Zm0,477.7c-129.44,0-234.56-105-234.56-234.6S117,8.51,246.42,8.51,481,113.49,481,243.1,376,477.7,246.42,477.7Z"/><path class="cls-2" d="M460.64,182.4C427,62.76,302.56-6.83,183.09,27,63.45,60.86-6.07,185.09,27.69,304.83c33.88,119.36,158,189,277.75,155.33C425,426.32,494.46,301.94,460.64,182.4ZM214.28,441.22c-105.42,0-190.81-85.51-190.81-190.94S108.86,59.43,214.28,59.43s190.89,85.41,190.89,190.85S319.69,441.22,214.28,441.22Z"/><path class="cls-3" d="M236.07,31.62c-117.57,0-213,95.43-213,213a188.05,188.05,0,0,0,.92,19c-.37-4.45-.52-8.75-.52-13.32,0-105.44,85.39-190.85,190.81-190.85s190.89,85.41,190.89,190.85S319.69,441.22,214.28,441.22A190.51,190.51,0,0,1,41.36,331c33.2,74.63,107.84,126.64,194.71,126.64,117.45,0,213-95.36,213-213.1C449.05,127.05,353.52,31.62,236.07,31.62Z"/><path class="cls-4" d="M214.28,66.57c-101.22,0-183.42,82.06-183.42,183.52,0,101.28,82.2,183.49,183.42,183.49s183.53-82.21,183.53-183.49A183.47,183.47,0,0,0,214.28,66.57ZM238.42,378A128.36,128.36,0,0,1,110,249.6c0-70.76,57.47-128.14,128.43-128.14A128.21,128.21,0,0,1,366.6,249.6C366.6,320.51,309.15,378,238.42,378Z"/><path class="cls-5" d="M226.83,100.16c-82,0-148.42,66.49-148.42,148.56s66.46,148.63,148.42,148.63a148.6,148.6,0,1,0,0-297.19ZM238.42,378A128.36,128.36,0,0,1,110,249.6c0-70.76,57.47-128.14,128.43-128.14A128.21,128.21,0,0,1,366.6,249.6C366.6,320.51,309.15,378,238.42,378Z"/></g></svg>